<svg width="26" height="25" viewBox="0 0 26 25" fill="none" xmlns="http://www.w3.org/2000/svg">
<path d="M21.3568 6.37581C21.245 6.23991 20.8642 6.29394 20.6786 6.34159C20.5258 6.39719 20.3879 6.48732 20.2757 6.60495C20.2478 6.62964 20.2202 6.65423 20.1927 6.67762C16.1931 10.0665 12.3133 13.4108 8.81587 17.065C8.7457 17.1382 8.67172 17.2072 8.56928 17.3032C8.516 17.3529 8.45536 17.4095 8.384 17.4772C7.94574 16.9959 6.94372 15.8603 6.13598 14.9451C5.7118 14.4646 5.34178 14.0453 5.13635 13.8149C5.0227 13.6824 4.9162 13.5439 4.81732 13.4C4.75029 13.3061 4.68087 13.2089 4.60821 13.1167C4.47512 12.9477 4.22713 12.6336 3.87659 12.8753C3.57955 13.0811 3.6925 13.3735 3.8231 13.6064C3.83837 13.6333 3.85331 13.6605 3.86815 13.6878C3.92112 13.7916 3.98271 13.8908 4.05225 13.9843C4.67352 14.7697 6.63586 17.1803 7.28463 17.8943C7.80638 18.4682 8.14272 18.6974 8.48395 18.7101C8.49326 18.7101 8.50269 18.7101 8.512 18.7101C8.90185 18.7101 9.29971 18.4084 9.81149 17.9239C12.505 15.3722 14.9377 13.0941 17.2486 10.96C17.9861 10.2787 18.7576 9.60938 19.5039 8.96191C19.965 8.56188 20.4417 8.14821 20.9057 7.73584C21.1316 7.53528 21.3419 7.33515 21.4332 7.09594C21.5104 6.89365 21.4941 6.54247 21.3568 6.37581Z" fill="white"/>
<path d="M19.2937 25H18.2153C17.9576 24.9382 17.6957 24.895 17.4317 24.8707C15.097 24.8132 12.762 24.7486 10.4268 24.7263C8.66817 24.7096 6.90595 24.6902 5.15088 24.7805C1.88482 24.949 -0.0607464 22.3576 0.175328 20.0931C0.241927 19.4548 0.18291 18.8029 0.174139 18.1573C0.121184 14.2594 0.0566368 10.3618 0.0192764 6.4638C0.0110463 5.60386 0.0103956 4.728 0.156372 3.8855C0.501712 1.89294 2.29892 0.47791 4.51705 0.416509C8.01864 0.319047 11.5214 0.265759 15.0233 0.179992C16.5313 0.143065 18.0399 0.0988913 19.5454 0.0104175C21.9404 -0.130361 24.3373 1.15354 24.6832 3.99239C24.9256 5.98094 25.0645 7.99016 25.1069 9.99322C25.1781 13.3688 25.147 16.7468 25.1375 20.1236C25.1317 22.1552 23.4241 24.2412 21.4158 24.6774C20.718 24.8292 20.0016 24.8951 19.2937 25ZM12.0131 23.5814C12.8921 23.6216 13.7706 23.6758 14.6501 23.6991C16.6012 23.7506 18.5496 24.0306 20.505 23.6891C22.4483 23.3496 23.9516 21.7432 23.9446 19.9754C23.9335 17.1914 23.9329 14.4075 23.9427 11.6237C23.9493 9.2549 23.9693 6.89502 23.5096 4.54542C23.0845 2.37278 21.7666 1.32853 19.5469 1.31488C16.2064 1.29441 12.8653 1.34271 9.52497 1.4157C7.91143 1.45101 6.2967 1.57196 4.68912 1.72379C3.51113 1.83511 2.43254 2.2228 1.83488 3.37209C1.39735 4.23824 1.17739 5.19792 1.19402 6.16816C1.19629 10.6224 1.24438 15.0769 1.21243 19.5313C1.19424 22.0592 2.64815 23.5986 5.16917 23.5837C7.45054 23.5698 9.7318 23.5805 12.0131 23.5815V23.5814Z" fill="white"/>
</svg>
