<svg width="25" height="25" viewBox="0 0 25 25" fill="none" xmlns="http://www.w3.org/2000/svg">
<path d="M3.5354 6.59888H5.5354H21.5354" stroke="black" stroke-width="2" stroke-linecap="round" stroke-linejoin="round"/>
<path d="M8.5354 6.59888V4.59888C8.5354 4.06844 8.74611 3.55974 9.12119 3.18466C9.49626 2.80959 10.005 2.59888 10.5354 2.59888H14.5354C15.0658 2.59888 15.5745 2.80959 15.9496 3.18466C16.3247 3.55974 16.5354 4.06844 16.5354 4.59888V6.59888M19.5354 6.59888V20.5989C19.5354 21.1293 19.3247 21.638 18.9496 22.0131C18.5745 22.3882 18.0658 22.5989 17.5354 22.5989H7.5354C7.00497 22.5989 6.49626 22.3882 6.12119 22.0131C5.74611 21.638 5.5354 21.1293 5.5354 20.5989V6.59888H19.5354Z" stroke="black" stroke-width="2" stroke-linecap="round" stroke-linejoin="round"/>
</svg>
